<svg width="220" height="207" viewBox="0 0 220 207" fill="none" xmlns="http://www.w3.org/2000/svg">
<path d="M60.289 196.788C53.8279 193.08 47.8203 188.67 42.3699 183.663C37.3471 179.049 32.7974 173.928 28.8021 168.382C24.668 162.642 21.1275 156.446 18.2705 149.884C15.7049 143.992 13.6905 137.805 12.2923 131.387C10.791 124.497 10 117.341 10 110C10 102.659 10.791 95.5034 12.2923 88.6127C13.9211 81.1371 16.386 73.9737 19.5841 67.2254C22.9216 60.1833 27.0575 53.5932 31.875 47.5723C36.8175 41.3951 42.4773 35.8168 48.7283 30.9638C54.6 26.4053 60.9933 22.4866 67.8035 19.3124C74.7306 16.0838 82.0891 13.6255 89.7688 12.0476C96.3026 10.7051 103.069 10 110 10C118.58 10 126.909 11.0807 134.855 13.1134C141.932 14.9233 148.706 17.488 155.087 20.7167C160.821 23.6182 166.238 27.0559 171.272 30.9638C177.523 35.8168 183.183 41.3951 188.125 47.5723C192.943 53.5932 197.078 60.1833 200.416 67.2254C203.614 73.9737 206.079 81.1371 207.708 88.6127C209.209 95.5034 210 102.659 210 110C210 117.341 209.209 124.497 207.708 131.387C206.309 137.805 204.295 143.992 201.73 149.884C198.872 156.446 195.332 162.642 191.198 168.382C186.598 174.768 181.263 180.589 175.318 185.723C170.496 189.886 165.271 193.597 159.711 196.788" stroke="#E7E7E7" stroke-width="20" stroke-linecap="round"/>
</svg>
